<svg width="75" height="53" viewBox="0 0 75 53" fill="none" xmlns="http://www.w3.org/2000/svg">
<path d="M72.7969 41.6129L69.1406 40.3554V3.30668C69.1346 2.43557 68.7852 1.60149 68.1674 0.983334C67.5496 0.365177 66.7126 0.012163 65.8359 0L9.16406 0C8.28329 0.00609849 7.44033 0.356438 6.81751 0.975243C6.19469 1.59405 5.84208 2.43158 5.83594 3.30668V40.3554L2.15625 41.6129C1.52236 41.8499 0.976313 42.2733 0.591026 42.8267C0.205739 43.3801 -0.00044763 44.0371 7.2968e-07 44.71V49.67C-2.0906e-05 50.5492 0.34987 51.3927 0.97335 52.0165C1.59683 52.6403 2.4433 52.9939 3.32813 53H71.6719C72.5567 52.9939 73.4032 52.6403 74.0266 52.0165C74.6501 51.3927 75 50.5492 75 49.67V44.71C74.9969 44.0316 74.7839 43.3705 74.3897 42.8165C73.9956 42.2624 73.4395 41.8422 72.7969 41.6129ZM41.6719 47.9235H33.3281C32.7078 47.8638 32.1322 47.5767 31.7133 47.1182C31.2945 46.6597 31.0625 46.0627 31.0625 45.4435C31.0625 44.8244 31.2945 44.2274 31.7133 43.7689C32.1322 43.3104 32.7078 43.0233 33.3281 42.9635H41.6719C42.2922 43.0233 42.8678 43.3104 43.2867 43.7689C43.7055 44.2274 43.9375 44.8244 43.9375 45.4435C43.9375 46.0627 43.7055 46.6597 43.2867 47.1182C42.8678 47.5767 42.2922 47.8638 41.6719 47.9235ZM62.5078 38.0967H12.4922V6.61336H62.5078V38.0967Z" fill="#1C1C1C"/>
<path d="M43.5702 20.3522L33.8905 14.4608C33.5334 14.233 33.1206 14.1058 32.6964 14.0929C32.2721 14.08 31.8523 14.1817 31.4818 14.3873C31.1112 14.5929 30.8038 14.8947 30.5923 15.2603C30.3809 15.6259 30.2733 16.0418 30.2812 16.4634V28.2463C30.2733 28.668 30.3809 29.0838 30.5923 29.4494C30.8038 29.8151 31.1112 30.1168 31.4818 30.3224C31.8523 30.528 32.2721 30.6298 32.6964 30.6168C33.1206 30.6039 33.5334 30.4768 33.8905 30.249L43.5702 24.3575C43.92 24.1513 44.2097 23.8583 44.4109 23.5071C44.6122 23.156 44.718 22.7589 44.718 22.3549C44.718 21.9508 44.6122 21.5537 44.4109 21.2026C44.2097 20.8515 43.92 20.5584 43.5702 20.3522Z" fill="#1C1C1C"/>
</svg>
