<svg width="62" height="71" viewBox="0 0 62 71" fill="none" xmlns="http://www.w3.org/2000/svg">
<path d="M37.2355 15.8644L33.6314 15.3319L32.0172 12.0704C31.4644 10.9388 30.5579 10.9388 29.983 12.0704L28.391 15.3319L24.7647 15.8644C23.5265 16.0419 23.2391 16.9072 24.1456 17.7947L26.7547 20.3463L26.1356 23.9407C25.9366 25.2053 26.6663 25.7379 27.7719 25.1388L30.9559 23.4304L34.1841 25.1388C35.2897 25.7379 36.0194 25.1388 35.8204 23.9407L35.2013 20.3463L37.8546 17.7504C38.7612 16.9072 38.4737 16.0419 37.2355 15.8644Z" fill="#1C1C1C"/>
<path d="M60.1649 5.28063H49.3525V0H12.6478V5.28063H1.85748C1.61275 5.27765 1.36989 5.32382 1.14321 5.41643C0.916527 5.50904 0.710593 5.64621 0.537528 5.81987C0.364463 5.99353 0.227763 6.20018 0.135473 6.42764C0.0431836 6.65511 -0.00283194 6.8988 0.000134846 7.14437V17.0622C0.000134846 19.7926 1.08106 22.4112 3.00511 24.3419C4.92916 26.2725 7.53874 27.3572 10.2598 27.3572H13.9745C15.4818 30.6968 17.7548 33.6314 20.6078 35.9216L21.426 36.5872C22.6291 37.5681 23.5989 38.8062 24.2645 40.2111C24.9301 41.616 25.2748 43.1522 25.2733 44.7078V48.99H36.727V44.1087C36.7233 42.74 37.0253 41.3877 37.6107 40.1514C38.1961 38.9151 39.0501 37.8261 40.11 36.9644L41.3924 35.9216C44.2455 33.6314 46.5184 30.6968 48.0258 27.3572H51.7405C54.4462 27.3338 57.0331 26.2388 58.938 24.3107C60.843 22.3825 61.9118 19.7773 61.9117 17.0622V7.14437C61.918 6.66714 61.7394 6.20609 61.4135 5.85841C61.0876 5.51073 60.64 5.30359 60.1649 5.28063ZM10.2598 22.5869C8.80339 22.581 7.40867 21.9964 6.38093 20.9609C5.35318 19.9255 4.77616 18.5236 4.77617 17.0622V10.0731H12.6478V21.4997C12.6268 21.8618 12.6268 22.2248 12.6478 22.5869H10.2598ZM37.2797 28.2669C35.0209 29.6436 32.3672 30.22 29.7432 29.904C27.1192 29.588 24.6768 28.3978 22.8067 26.5239C20.9367 24.65 19.7473 22.2008 19.4288 19.5682C19.1103 16.9356 19.6812 14.2719 21.0501 12.0034C21.9028 10.4453 23.1847 9.16657 24.7426 8.32031C27.0014 6.95435 29.6508 6.38649 32.2685 6.70724C34.8863 7.028 37.3217 8.21891 39.1865 10.0901C41.0513 11.9613 42.2381 14.4051 42.5577 17.0319C42.8774 19.6587 42.3115 22.3172 40.9502 24.5837C40.1065 26.1411 38.8318 27.4203 37.2797 28.2669ZM57.1799 17.1731C57.1741 18.6366 56.5921 20.0384 55.5609 21.0732C54.5296 22.108 53.1326 22.692 51.6742 22.6978H49.264C49.285 22.3357 49.285 21.9727 49.264 21.6106V10.0731H57.1578L57.1799 17.1731ZM50.0822 65.2534H46.2569V59.0853C46.2569 57.673 45.6978 56.3186 44.7026 55.32C43.7074 54.3213 42.3576 53.7603 40.9502 53.7603H21.0501C19.6426 53.7603 18.2929 54.3213 17.2977 55.32C16.3025 56.3186 15.7434 57.673 15.7434 59.0853V65.2534H11.9181V71H50.0822V65.2534ZM39.4909 59.5069V63.3453H22.5315V59.5069H39.4909Z" fill="#1C1C1C"/>
</svg>
