<svg width="75" height="53" viewBox="0 0 75 53" fill="none" xmlns="http://www.w3.org/2000/svg">
<path d="M72.7969 41.6129L69.1406 40.3554V3.30668C69.1346 2.43557 68.7852 1.60149 68.1674 0.983334C67.5496 0.365177 66.7126 0.012163 65.8359 0L9.16406 0C8.28329 0.00609849 7.44033 0.356438 6.81751 0.975243C6.19469 1.59405 5.84208 2.43158 5.83594 3.30668V40.3554L2.15625 41.6129C1.52236 41.8499 0.976313 42.2733 0.591026 42.8267C0.205739 43.3801 -0.00044763 44.0371 7.2968e-07 44.71V49.67C-2.0906e-05 50.5492 0.34987 51.3927 0.97335 52.0165C1.59683 52.6403 2.4433 52.9939 3.32813 53H71.6719C72.5567 52.9939 73.4032 52.6403 74.0266 52.0165C74.6501 51.3927 75 50.5492 75 49.67V44.71C74.9969 44.0316 74.7839 43.3705 74.3897 42.8165C73.9956 42.2624 73.4395 41.8422 72.7969 41.6129ZM41.6719 47.9235H33.3281C32.7078 47.8638 32.1322 47.5767 31.7133 47.1182C31.2945 46.6597 31.0625 46.0627 31.0625 45.4435C31.0625 44.8244 31.2945 44.2274 31.7133 43.7689C32.1322 43.3104 32.7078 43.0233 33.3281 42.9635H41.6719C42.2922 43.0233 42.8678 43.3104 43.2867 43.7689C43.7055 44.2274 43.9375 44.8244 43.9375 45.4435C43.9375 46.0627 43.7055 46.6597 43.2867 47.1182C42.8678 47.5767 42.2922 47.8638 41.6719 47.9235ZM62.5078 38.0967H12.4922V6.61336H62.5078V38.0967Z" fill="#1C1C1C"/>
<path d="M27.3516 12.7607H21.3047C20.4633 12.7607 19.7812 13.4384 19.7812 14.2744V21.7726C19.7812 22.6086 20.4633 23.2862 21.3047 23.2862H27.3516C28.1929 23.2862 28.875 22.6086 28.875 21.7726V14.2744C28.875 13.4384 28.1929 12.7607 27.3516 12.7607Z" fill="#1C1C1C"/>
<path d="M54.5625 13.1333H35.1563C34.6528 13.1333 34.1699 13.332 33.8139 13.6858C33.4578 14.0395 33.2578 14.5193 33.2578 15.0195C33.2578 15.5198 33.4578 15.9995 33.8139 16.3533C34.1699 16.707 34.6528 16.9057 35.1563 16.9057H54.6797C55.1832 16.9057 55.6661 16.707 56.0221 16.3533C56.3781 15.9995 56.5781 15.5198 56.5781 15.0195C56.5781 14.5193 56.3781 14.0395 56.0221 13.6858C55.6661 13.332 55.1832 13.1333 54.6797 13.1333H54.5625Z" fill="#1C1C1C"/>
<path d="M54.5625 20.6553H35.1563C34.6528 20.6553 34.1699 20.854 33.8139 21.2077C33.4578 21.5615 33.2578 22.0412 33.2578 22.5415C33.2578 23.0417 33.4578 23.5215 33.8139 23.8752C34.1699 24.229 34.6528 24.4277 35.1563 24.4277H54.6797C55.1832 24.4277 55.6661 24.229 56.0221 23.8752C56.3781 23.5215 56.5781 23.0417 56.5781 22.5415C56.5781 22.0412 56.3781 21.5615 56.0221 21.2077C55.6661 20.854 55.1832 20.6553 54.6797 20.6553H54.5625Z" fill="#1C1C1C"/>
<path d="M54.5625 28.1768H21.3984C20.8949 28.1768 20.4121 28.3755 20.056 28.7292C19.7 29.0829 19.5 29.5627 19.5 30.063C19.5 30.5632 19.7 31.043 20.056 31.3967C20.4121 31.7504 20.8949 31.9492 21.3984 31.9492H54.5625C55.066 31.9492 55.5489 31.7504 55.9049 31.3967C56.2609 31.043 56.4609 30.5632 56.4609 30.063C56.4609 29.5627 56.2609 29.0829 55.9049 28.7292C55.5489 28.3755 55.066 28.1768 54.5625 28.1768Z" fill="#1C1C1C"/>
</svg>
