<svg width="75" height="53" viewBox="0 0 75 53" fill="none" xmlns="http://www.w3.org/2000/svg">
<g clip-path="url(#clip0)">
<path d="M72.7846 41.8036L69.2308 40.6298V28.4407C68.9543 28.4629 68.6765 28.4629 68.4 28.4407H62.4923V38.3726H12.5077V7.35812H37.5V3.24994C37.5126 2.42507 37.6687 1.60832 37.9615 0.834692H9.23077C8.78664 0.825628 8.34515 0.903758 7.93242 1.06446C7.51969 1.22517 7.14409 1.46519 6.82783 1.77032C6.51157 2.07546 6.26107 2.43953 6.09113 2.841C5.9212 3.24246 5.83528 3.67318 5.83846 4.10769V40.6298L2.16923 41.8488H2.30769C1.64168 42.0578 1.06009 42.467 0.645737 43.0182C0.231387 43.5694 0.00541337 44.2345 0 44.9186L0 49.6588C0 50.0857 0.0859539 50.5083 0.252954 50.9027C0.419954 51.297 0.66473 51.6554 0.973307 51.9572C1.28188 52.259 1.64822 52.4985 2.05139 52.6618C2.45456 52.8252 2.88668 52.9092 3.32308 52.9092H71.6769C72.1133 52.9092 72.5454 52.8252 72.9486 52.6618C73.3518 52.4985 73.7181 52.259 74.0267 51.9572C74.3353 51.6554 74.58 51.297 74.747 50.9027C74.914 50.5083 75 50.0857 75 49.6588V44.8734C75.0011 44.2004 74.7886 43.5436 74.3918 42.9937C73.9949 42.4438 73.4334 42.028 72.7846 41.8036ZM41.6769 48.011H33.3231C32.6621 48.011 32.0281 47.7542 31.5607 47.297C31.0934 46.8398 30.8308 46.2197 30.8308 45.5732C30.8308 44.9266 31.0934 44.3066 31.5607 43.8494C32.0281 43.3922 32.6621 43.1354 33.3231 43.1354H41.6769C42.3379 43.1354 42.9719 43.3922 43.4393 43.8494C43.9066 44.3066 44.1692 44.9266 44.1692 45.5732C44.1692 46.2197 43.9066 46.8398 43.4393 47.297C42.9719 47.7542 42.3379 48.011 41.6769 48.011ZM24.6923 23.6102C25.7184 24.114 26.8947 24.2432 28.0095 23.9746C29.1243 23.706 30.1046 23.0572 30.7741 22.1449C31.4436 21.2325 31.7584 20.1165 31.6619 18.9974C31.5654 17.8783 31.0639 16.8296 30.2476 16.0399C29.4314 15.2501 28.3538 14.7711 27.2087 14.6889C26.0637 14.6068 24.9262 14.9269 24.0008 15.5917C23.0755 16.2565 22.4229 17.2224 22.1605 18.3157C21.8981 19.409 22.043 20.558 22.5692 21.5562C22.994 22.4734 23.75 23.2048 24.6923 23.6102ZM18.7846 31.962V33.0681C18.7783 33.3696 18.8933 33.6615 19.1047 33.881C19.3162 34.1005 19.6073 34.2301 19.9154 34.2418H33.9C34.204 34.2244 34.4893 34.0923 34.6958 33.8735C34.9024 33.6546 35.0142 33.3659 35.0077 33.0681V31.962C35.0452 30.9778 34.6826 30.0192 33.9993 29.2958C33.316 28.5724 32.3676 28.1433 31.3615 28.1022H22.4538C21.9537 28.1196 21.462 28.2334 21.0068 28.4368C20.5517 28.6403 20.142 28.9296 19.8012 29.2881C19.4604 29.6466 19.1952 30.0673 19.0208 30.5261C18.8464 30.9849 18.7661 31.4729 18.7846 31.962Z" fill="#1C1C1C"/>
<path d="M68.3307 2.4232e-07H45C44.1165 -2.03086e-05 43.2689 0.341712 42.642 0.950645C42.0151 1.55958 41.6599 2.38629 41.6538 3.25043V26.0937C41.6599 26.5268 41.84 26.9401 42.1553 27.2443C42.4706 27.5484 42.8956 27.7189 43.3384 27.7189C43.6985 27.7174 44.0478 27.5982 44.3307 27.3803L47.4461 25.1231C48.0166 24.6984 48.7138 24.4685 49.4307 24.4685H68.3307C68.768 24.4715 69.2015 24.3895 69.606 24.2272C70.0106 24.0649 70.3782 23.8256 70.6873 23.5231C70.9965 23.2207 71.2412 22.8612 71.4071 22.4655C71.573 22.0698 71.6569 21.6457 71.6538 21.2181V3.16014C71.6298 2.31381 71.2691 1.51007 70.6485 0.919887C70.0279 0.329707 69.1963 -0.000326458 68.3307 2.4232e-07ZM48.4615 18.1934C48.0051 18.1934 47.5589 18.061 47.1794 17.8129C46.7999 17.5649 46.5041 17.2124 46.3295 16.7999C46.1548 16.3875 46.1091 15.9336 46.1982 15.4957C46.2872 15.0579 46.507 14.6557 46.8297 14.34C47.1525 14.0243 47.5636 13.8093 48.0113 13.7222C48.4589 13.6352 48.9229 13.6799 49.3446 13.8507C49.7663 14.0215 50.1267 14.3109 50.3803 14.6821C50.6339 15.0533 50.7692 15.4897 50.7692 15.9361C50.7692 16.5348 50.5261 17.1089 50.0933 17.5322C49.6605 17.9555 49.0735 18.1934 48.4615 18.1934ZM48.4615 10.7445C48.0051 10.7445 47.5589 10.6121 47.1794 10.364C46.7999 10.116 46.5041 9.76349 46.3295 9.35103C46.1548 8.93857 46.1091 8.48472 46.1982 8.04686C46.2872 7.609 46.507 7.20679 46.8297 6.89111C47.1525 6.57543 47.5636 6.36045 48.0113 6.27335C48.4589 6.18626 48.9229 6.23096 49.3446 6.4018C49.7663 6.57265 50.1267 6.86197 50.3803 7.23317C50.6339 7.60437 50.7692 8.04078 50.7692 8.48722C50.7692 9.08588 50.5261 9.66002 50.0933 10.0833C49.6605 10.5066 49.0735 10.7445 48.4615 10.7445ZM62.5846 18.0579H54.9923C54.8137 18.1078 54.6257 18.1165 54.4431 18.0832C54.2605 18.05 54.0883 17.9758 53.94 17.8664C53.7917 17.757 53.6714 17.6154 53.5886 17.4528C53.5058 17.2902 53.4627 17.111 53.4627 16.9293C53.4627 16.7476 53.5058 16.5684 53.5886 16.4058C53.6714 16.2432 53.7917 16.1017 53.94 15.9922C54.0883 15.8828 54.2605 15.8086 54.4431 15.7754C54.6257 15.7421 54.8137 15.7508 54.9923 15.8007H62.5846C62.7632 15.7508 62.9512 15.7421 63.1338 15.7754C63.3164 15.8086 63.4886 15.8828 63.6368 15.9922C63.7851 16.1017 63.9054 16.2432 63.9882 16.4058C64.0711 16.5684 64.1142 16.7476 64.1142 16.9293C64.1142 17.111 64.0711 17.2902 63.9882 17.4528C63.9054 17.6154 63.7851 17.757 63.6368 17.8664C63.4886 17.9758 63.3164 18.05 63.1338 18.0832C62.9512 18.1165 62.7632 18.1078 62.5846 18.0579ZM66.3923 13.3177H54.9923C54.8137 13.3676 54.6257 13.3763 54.4431 13.343C54.2605 13.3098 54.0883 13.2356 53.94 13.1262C53.7917 13.0167 53.6714 12.8752 53.5886 12.7126C53.5058 12.55 53.4627 12.3708 53.4627 12.1891C53.4627 12.0074 53.5058 11.8282 53.5886 11.6656C53.6714 11.503 53.7917 11.3614 53.94 11.252C54.0883 11.1426 54.2605 11.0684 54.4431 11.0351C54.6257 11.0019 54.8137 11.0106 54.9923 11.0605H66.3923C66.5709 11.0106 66.7589 11.0019 66.9414 11.0351C67.124 11.0684 67.2963 11.1426 67.4445 11.252C67.5928 11.3614 67.7131 11.503 67.7959 11.6656C67.8788 11.8282 67.9219 12.0074 67.9219 12.1891C67.9219 12.3708 67.8788 12.55 67.7959 12.7126C67.7131 12.8752 67.5928 13.0167 67.4445 13.1262C67.2963 13.2356 67.124 13.3098 66.9414 13.343C66.7589 13.3763 66.5709 13.3676 66.3923 13.3177ZM66.3923 8.6678H54.9923C54.8137 8.7177 54.6257 8.72637 54.4431 8.69313C54.2605 8.65989 54.0883 8.58564 53.94 8.47624C53.7917 8.36683 53.6714 8.22525 53.5886 8.06265C53.5058 7.90004 53.4627 7.72085 53.4627 7.53918C53.4627 7.35751 53.5058 7.17832 53.5886 7.01571C53.6714 6.85311 53.7917 6.71153 53.94 6.60213C54.0883 6.49272 54.2605 6.41848 54.4431 6.38523C54.6257 6.35199 54.8137 6.36066 54.9923 6.41056H66.3923C66.643 6.48063 66.8636 6.62868 67.0207 6.83232C67.1777 7.03596 67.2627 7.2841 67.2627 7.53918C67.2627 7.79426 67.1777 8.0424 67.0207 8.24604C66.8636 8.44968 66.643 8.59774 66.3923 8.6678Z" fill="#1C1C1C"/>
</g>
<defs>
<clipPath id="clip0">
<rect width="75" height="53" fill="white"/>
</clipPath>
</defs>
</svg>
