<svg width="75" height="53" viewBox="0 0 75 53" fill="none" xmlns="http://www.w3.org/2000/svg">
<path d="M72.7969 41.6129L69.1406 40.3554V3.30668C69.1346 2.43557 68.7852 1.60149 68.1674 0.983334C67.5496 0.365177 66.7126 0.012163 65.8359 0L9.16406 0C8.28329 0.00609849 7.44033 0.356438 6.81751 0.975243C6.19469 1.59405 5.84208 2.43158 5.83594 3.30668V40.3554L2.15625 41.6129C1.52236 41.8499 0.976313 42.2733 0.591026 42.8267C0.205739 43.3801 -0.00044763 44.0371 7.2968e-07 44.71V49.67C-2.0906e-05 50.5492 0.34987 51.3927 0.97335 52.0165C1.59683 52.6403 2.4433 52.9939 3.32813 53H71.6719C72.5567 52.9939 73.4032 52.6403 74.0266 52.0165C74.6501 51.3927 75 50.5492 75 49.67V44.71C74.9969 44.0316 74.7839 43.3705 74.3897 42.8165C73.9956 42.2624 73.4395 41.8422 72.7969 41.6129ZM41.6719 47.9235H33.3281C32.7078 47.8638 32.1322 47.5767 31.7133 47.1182C31.2945 46.6597 31.0625 46.0627 31.0625 45.4435C31.0625 44.8244 31.2945 44.2274 31.7133 43.7689C32.1322 43.3104 32.7078 43.0233 33.3281 42.9635H41.6719C42.2922 43.0233 42.8678 43.3104 43.2867 43.7689C43.7055 44.2274 43.9375 44.8244 43.9375 45.4435C43.9375 46.0627 43.7055 46.6597 43.2867 47.1182C42.8678 47.5767 42.2922 47.8638 41.6719 47.9235ZM62.5078 38.0967H12.4922V6.61336H62.5078V38.0967Z" fill="#1C1C1C"/>
<path d="M45.2814 12.9242L32.672 16.9993C32.418 17.0801 32.1929 17.2322 32.0239 17.4372C31.8549 17.6421 31.7492 17.8913 31.7194 18.1547C31.6897 18.418 31.7373 18.6843 31.8564 18.9214C31.9755 19.1584 32.1611 19.3563 32.3908 19.491L35.4845 21.3073L28.3126 28.433C28.055 28.6941 27.9106 29.0453 27.9106 29.411C27.9106 29.7767 28.055 30.1278 28.3126 30.389L29.3673 31.4602C29.6302 31.7162 29.9836 31.8596 30.3517 31.8596C30.7198 31.8596 31.0732 31.7162 31.3361 31.4602L38.5783 24.2647L40.3595 27.3385C40.4905 27.5743 40.6884 27.7667 40.9286 27.8917C41.1687 28.0167 41.4406 28.0688 41.7103 28.0415C41.9801 28.0142 42.2358 27.9088 42.4457 27.7382C42.6555 27.5677 42.8103 27.3396 42.8908 27.0823L47.0392 14.6707C47.1144 14.4279 47.1216 14.1694 47.06 13.9228C46.9984 13.6763 46.8704 13.4511 46.6896 13.2715C46.5088 13.0919 46.2822 12.9647 46.0341 12.9035C45.7859 12.8423 45.5257 12.8494 45.2814 12.9242Z" fill="#1C1C1C"/>
</svg>
